# xmcd CD database file
#
# Track frame offsets:
#	150
#	11387
#	30500
#	48865
#	63045
#	80285
#	90975
#	110405
#	124505
#	139775
#	155195
#	171355
#	185255
#	201495
#	216632
#
# Disc length: 3064 seconds
#
# Revision: 1
# Processed by: cddbd v1.5.1PL2 Copyright (c) Steve Scherf et al.
# Submitted via: CDex 1.51
#
DISCID=c50bf60f
DTITLE=Shenandoah - 15 Favorites
DYEAR=1999
DGENRE=Country
TTITLE0=Darned If I Don't (Danged If I Do)
TTITLE1=Wooden Cross
TTITLE2=Somewhere In The Vicinity Of The Heart
TTITLE3=Heaven Bound (I'm Ready)
TTITLE4=Always Have, Always Will
TTITLE5=Can't Buy Love
TTITLE6=Sunday In The South
TTITLE7=Church On Cumberland Road
TTITLE8=Two Dozen Roses
TTITLE9=Next To You, Next To Me
TTITLE10=Deeper Than That
TTITLE11=What Else You Got To Live For
TTITLE12=Her Love Is A Miracle
TTITLE13=You Can Say That
TTITLE14=All Over But The Shoutin'
EXTD=YEAR: 1999
EXTT0=
EXTT1=
EXTT2=
EXTT3=
EXTT4=
EXTT5=
EXTT6=
EXTT7=
EXTT8=
EXTT9=
EXTT10=
EXTT11=
EXTT12=
EXTT13=
EXTT14=
PLAYORDER=
